<svg width="21" height="21" viewBox="0 0 21 21" fill="none" xmlns="http://www.w3.org/2000/svg">
<path fill-rule="evenodd" clip-rule="evenodd" d="M4.698 1.17897e-06C3.79954 -2.95527e-05 3.0503 -5.00007e-05 2.45552 0.0818602C1.82773 0.168329 1.26093 0.358528 0.805461 0.825107C0.349991 1.29169 0.164321 1.87231 0.0799112 2.51541C-4.88102e-05 3.1247 -2.88491e-05 3.89218 1.1509e-06 4.81257V6.9679C-2.88491e-05 7.88829 -4.88102e-05 8.65579 0.0799112 9.2651C0.164321 9.90821 0.349991 10.4888 0.805461 10.9553C1.26093 11.422 1.82773 11.6122 2.45552 11.6986C3.0503 11.7806 3.79951 11.7805 4.69798 11.7805H4.802C5.70047 11.7805 6.44971 11.7806 7.04448 11.6986C7.67228 11.6122 8.23908 11.422 8.69455 10.9553C9.15 10.4888 9.3357 9.90821 9.4201 9.2651C9.5001 8.65579 9.5 7.88832 9.5 6.96793V4.8126C9.5 3.89221 9.5001 3.1247 9.4201 2.51541C9.3357 1.87231 9.15 1.29169 8.69455 0.825107C8.23908 0.358528 7.67228 0.168329 7.04448 0.0818602C6.44971 -5.00007e-05 5.7005 -2.95527e-05 4.80203 1.17897e-06H4.698ZM1.86612 1.91164C1.99644 1.77814 2.19393 1.6683 2.6554 1.60475C3.13843 1.53823 3.78599 1.53659 4.75 1.53659C5.71401 1.53659 6.36157 1.53823 6.84461 1.60475C7.30607 1.6683 7.50357 1.77814 7.63389 1.91164C7.7642 2.04514 7.87143 2.24744 7.93347 2.72017C7.99841 3.21498 8 3.87833 8 4.86585V6.91463C8 7.90216 7.99841 8.56554 7.93347 9.06032C7.87143 9.53308 7.7642 9.7354 7.63389 9.86887C7.50357 10.0024 7.30607 10.1122 6.84461 10.1758C6.36157 10.2423 5.71401 10.2439 4.75 10.2439C3.78599 10.2439 3.13843 10.2423 2.6554 10.1758C2.19393 10.1122 1.99644 10.0024 1.86612 9.86887C1.7358 9.7354 1.62858 9.53308 1.56654 9.06032C1.5016 8.56554 1.5 7.90216 1.5 6.91463V4.86585C1.5 3.87833 1.5016 3.21498 1.56654 2.72017C1.62858 2.24744 1.7358 2.04514 1.86612 1.91164Z" fill="#334851"/>
<path fill-rule="evenodd" clip-rule="evenodd" d="M16.198 9.21951C15.2995 9.21951 14.5503 9.21941 13.9555 9.30136C13.3277 9.38782 12.7609 9.57805 12.3055 10.0447C11.85 10.5112 11.6643 11.0918 11.5799 11.7349C11.4999 12.3442 11.5 13.1117 11.5 14.0321V16.1874C11.5 17.1078 11.4999 17.8753 11.5799 18.4846C11.6643 19.1277 11.85 19.7083 12.3055 20.1749C12.7609 20.6415 13.3277 20.8317 13.9555 20.9181C14.5503 21.0001 15.2995 21 16.1979 21H16.302C17.2004 21 17.9497 21.0001 18.5445 20.9181C19.1723 20.8317 19.7391 20.6415 20.1945 20.1749C20.65 19.7083 20.8357 19.1277 20.9201 18.4846C21.0001 17.8753 21 17.1078 21 16.1875V14.0321C21 13.1118 21.0001 12.3442 20.9201 11.7349C20.8357 11.0918 20.65 10.5112 20.1945 10.0447C19.7391 9.57805 19.1723 9.38782 18.5445 9.30136C17.9497 9.21941 17.2005 9.21951 16.302 9.21951H16.198ZM13.3661 11.1311C13.4964 10.9976 13.6939 10.8878 14.1554 10.8242C14.6384 10.7577 15.286 10.7561 16.25 10.7561C17.214 10.7561 17.8616 10.7577 18.3446 10.8242C18.8061 10.8878 19.0036 10.9976 19.1339 11.1311C19.2642 11.2646 19.3714 11.4669 19.4335 11.9397C19.4984 12.4345 19.5 13.0979 19.5 14.0854V16.1341C19.5 17.1217 19.4984 17.7851 19.4335 18.2798C19.3714 18.7526 19.2642 18.9549 19.1339 19.0884C19.0036 19.2219 18.8061 19.3317 18.3446 19.3953C17.8616 19.4618 17.214 19.4634 16.25 19.4634C15.286 19.4634 14.6384 19.4618 14.1554 19.3953C13.6939 19.3317 13.4964 19.2219 13.3661 19.0884C13.2358 18.9549 13.1286 18.7526 13.0665 18.2798C13.0016 17.7851 13 17.1217 13 16.1341V14.0854C13 13.0979 13.0016 12.4345 13.0665 11.9397C13.1286 11.4669 13.2358 11.2646 13.3661 11.1311Z" fill="#334851"/>
<path fill-rule="evenodd" clip-rule="evenodd" d="M15.2248 0H17.2753C17.7197 0 18.0908 -1.02914e-05 18.3954 0.0212765C18.7125 0.0434443 19.012 0.0912219 19.3024 0.214436C19.9762 0.500353 20.5116 1.04877 20.7907 1.73903C20.911 2.0365 20.9576 2.34333 20.9792 2.66817C21 2.98021 21 3.3603 21 3.8156V3.86734C21 4.32264 21 4.70273 20.9792 5.01477C20.9576 5.3396 20.911 5.64643 20.7907 5.9439C20.5116 6.63417 19.9762 7.18257 19.3024 7.46849C19.012 7.59171 18.7125 7.63949 18.3954 7.66165C18.0908 7.68295 17.7197 7.68294 17.2753 7.68293H15.2247C14.7803 7.68294 14.4092 7.68295 14.1046 7.66165C13.7875 7.63949 13.488 7.59171 13.1976 7.46849C12.5238 7.18257 11.9884 6.63417 11.7093 5.9439C11.5891 5.64643 11.5424 5.3396 11.5208 5.01477C11.5 4.70272 11.5 4.32264 11.5 3.86733V3.8156C11.5 3.3603 11.5 2.98021 11.5208 2.66817C11.5424 2.34333 11.5891 2.0365 11.7093 1.73903C11.9884 1.04877 12.5238 0.500353 13.1976 0.214436C13.488 0.0912219 13.7875 0.0434443 14.1046 0.0212765C14.4092 -1.02914e-05 14.7803 0 15.2248 0ZM14.2067 1.5543C13.966 1.57113 13.8488 1.60133 13.7716 1.63406C13.4654 1.76402 13.222 2.0133 13.0952 2.32706C13.0632 2.40609 13.0337 2.52617 13.0173 2.77277C13.0004 3.02626 13 3.35365 13 3.84146C13 4.32929 13.0004 4.65667 13.0173 4.91017C13.0337 5.15677 13.0632 5.27684 13.0952 5.35588C13.222 5.66963 13.4654 5.91892 13.7716 6.04887C13.8488 6.08161 13.966 6.11181 14.2067 6.12863C14.4542 6.14593 14.7738 6.14634 15.25 6.14634H17.25C17.7262 6.14634 18.0458 6.14593 18.2933 6.12863C18.534 6.11181 18.6512 6.08161 18.7284 6.04887C19.0346 5.91892 19.278 5.66963 19.4049 5.35588C19.4368 5.27684 19.4663 5.15677 19.4827 4.91017C19.4996 4.65667 19.5 4.32929 19.5 3.84146C19.5 3.35365 19.4996 3.02626 19.4827 2.77276C19.4663 2.52617 19.4368 2.40609 19.4049 2.32706C19.278 2.0133 19.0346 1.76402 18.7284 1.63406C18.6512 1.60133 18.534 1.57113 18.2933 1.5543C18.0458 1.53701 17.7262 1.53659 17.25 1.53659H15.25C14.7738 1.53659 14.4542 1.53701 14.2067 1.5543Z" fill="#334851"/>
<path fill-rule="evenodd" clip-rule="evenodd" d="M3.72475 13.3171C3.28029 13.3171 2.90925 13.3171 2.60464 13.3384C2.28754 13.3605 1.98801 13.4083 1.69762 13.5315C1.0238 13.8174 0.48844 14.3658 0.20933 15.0561C0.08905 15.3536 0.04241 15.6604 0.02077 15.9852C-1.00464e-05 16.2972 0 16.6773 0 17.1326V17.1845C0 17.6397 -1.00464e-05 18.0198 0.02077 18.3319C0.04241 18.6567 0.08905 18.9635 0.20933 19.261C0.48844 19.9512 1.0238 20.4997 1.69762 20.7856C1.98801 20.9088 2.28754 20.9566 2.60464 20.9787C2.90925 21 3.28029 21 3.72475 21H5.77526C6.21972 21 6.59076 21 6.89537 20.9787C7.21247 20.9566 7.51199 20.9088 7.80238 20.7856C8.47621 20.4997 9.0116 19.9512 9.2907 19.261C9.411 18.9635 9.4576 18.6567 9.4792 18.3319C9.5 18.0198 9.5 17.6397 9.5 17.1845V17.1326C9.5 16.6774 9.5 16.2972 9.4792 15.9852C9.4576 15.6604 9.411 15.3536 9.2907 15.0561C9.0116 14.3658 8.47621 13.8174 7.80238 13.5315C7.51199 13.4083 7.21247 13.3605 6.89537 13.3384C6.59075 13.3171 6.21972 13.3171 5.77525 13.3171H3.72475ZM2.27165 14.9512C2.3488 14.9184 2.46602 14.8882 2.70675 14.8714C2.95421 14.8541 3.2738 14.8537 3.75 14.8537H5.75C6.22621 14.8537 6.5458 14.8541 6.79326 14.8714C7.03399 14.8882 7.1512 14.9184 7.22836 14.9512C7.53464 15.0811 7.77799 15.3304 7.90485 15.6441C7.93681 15.7232 7.96629 15.8432 7.98271 16.0898C7.9996 16.3433 8 16.6707 8 17.1585C8 17.6464 7.9996 17.9737 7.98271 18.2273C7.96629 18.4739 7.93681 18.5939 7.90485 18.673C7.77799 18.9867 7.53464 19.236 7.22836 19.366C7.1512 19.3987 7.03399 19.4289 6.79326 19.4457C6.5458 19.463 6.22621 19.4634 5.75 19.4634H3.75C3.2738 19.4634 2.95421 19.463 2.70674 19.4457C2.46602 19.4289 2.3488 19.3987 2.27165 19.366C1.96536 19.236 1.72202 18.9867 1.59515 18.673C1.5632 18.5939 1.53372 18.4739 1.51729 18.2273C1.50041 17.9737 1.5 17.6464 1.5 17.1585C1.5 16.6707 1.50041 16.3433 1.51729 16.0898C1.53372 15.8432 1.5632 15.7232 1.59515 15.6441C1.72202 15.3304 1.96536 15.0811 2.27165 14.9512Z" fill="#334851"/>
</svg>
