<svg width="21" height="21" viewBox="0 0 21 21" fill="none" xmlns="http://www.w3.org/2000/svg">
<path d="M15.1598 21C15.0649 20.9995 13.8294 20.9971 12.4459 20.9948C11.7153 20.9936 11.0352 20.9808 10.5005 20.9599C10.2332 20.9494 10.0026 20.937 9.81549 20.9224C9.62832 20.9077 9.51587 20.9039 9.34268 20.8585C9.13456 20.804 8.95498 20.8143 8.69053 20.5553C8.5583 20.4258 8.47455 20.2234 8.45253 20.0896C8.43052 19.9557 8.43722 19.8719 8.44003 19.7931C8.44986 19.5165 8.52792 19.3585 8.61803 19.1645C8.70814 18.9706 8.82428 18.7694 8.96164 18.5676C9.14876 18.2927 9.22671 18.114 9.24998 18.0083C9.27325 17.9025 9.27189 17.8459 9.21255 17.6809C9.15846 17.5306 9.08873 17.4458 8.90996 17.3526C8.73119 17.2594 8.43095 17.1828 8.00936 17.1738C7.43732 17.1617 7.04276 17.2395 6.82585 17.3422C6.60895 17.4449 6.54364 17.5258 6.48327 17.7298C6.40909 17.9805 6.41434 18.0918 6.4563 18.2188C6.49827 18.3457 6.61283 18.5294 6.88205 18.7932C7.1404 19.0463 7.28666 19.4197 7.31476 19.772C7.32902 19.9509 7.39368 20.1474 7.20802 20.4676C7.11519 20.6277 6.95766 20.7438 6.84626 20.7976C6.73486 20.8514 6.65578 20.8705 6.58038 20.8905C6.34037 20.9543 6.29811 20.9319 6.11639 20.941C5.93467 20.9501 5.70365 20.9575 5.43665 20.9636C4.90267 20.9758 4.22693 20.9827 3.55711 20.9841C2.8873 20.9855 2.22461 20.9814 1.71592 20.9713C1.46158 20.9663 1.24678 20.9599 1.08182 20.9513C0.999339 20.947 0.930554 20.9425 0.865152 20.9356C0.832452 20.9321 0.801737 20.9285 0.758512 20.9203C0.715286 20.912 0.699363 20.96 0.47899 20.8048C0.309006 20.6851 0.285927 20.5985 0.260479 20.5453C0.235031 20.4922 0.225822 20.4604 0.218028 20.4338C0.20244 20.3806 0.197331 20.3493 0.191983 20.3176C0.181288 20.2543 0.17493 20.1963 0.168297 20.1268C0.15503 19.9878 0.143315 19.8108 0.131793 19.5976C0.108748 19.1713 0.0876217 18.6063 0.0710894 18.0062C0.0380254 16.806 0.0214349 15.493 0.0523249 14.8497C0.0624857 14.6381 0.0850602 14.4351 0.11754 14.2556C0.13378 14.1658 0.151796 14.0828 0.178038 13.9966C0.204279 13.9104 0.199418 13.8354 0.356251 13.6543C0.5093 13.4776 0.75039 13.3659 0.957643 13.3441C1.1649 13.3223 1.34037 13.3624 1.50007 13.4194C1.81949 13.5334 2.10179 13.7275 2.41319 13.9896C2.94322 14.4357 3.06889 14.4608 3.43406 14.3642C3.83611 14.2577 4.1994 13.847 4.36481 13.2722C4.53023 12.6974 4.46503 12.0285 4.15368 11.5684C3.99274 11.3306 3.69378 11.0888 3.40925 10.958C3.15653 10.8418 2.95883 10.8468 2.91245 10.8486C2.87463 10.8747 2.81716 10.9129 2.76797 10.9598C2.65815 11.0644 2.52141 11.2088 2.40027 11.3518C2.00801 11.8147 1.72639 12.1918 1.10068 12.2263C0.78783 12.2436 0.432824 12.0392 0.273707 11.8079C0.11459 11.5766 0.0595315 11.3464 0.0205377 11.094C-0.00698233 10.9159 0.00125861 10.8295 0.000850155 10.6448C0.000430155 10.4601 0.00348566 10.2272 0.00915619 9.95997C0.020492 9.42551 0.0423115 8.75542 0.0687311 8.0939C0.0951507 7.43238 0.126124 6.78049 0.156094 6.28134C0.17108 6.03176 0.185639 5.8213 0.200084 5.66042C0.207306 5.57997 0.21413 5.51314 0.22295 5.45021C0.22736 5.41875 0.231799 5.38934 0.240792 5.34836C0.249785 5.30738 0.20179 5.2973 0.356866 5.08063C0.497745 4.88379 0.588178 4.87662 0.641002 4.85444C0.693826 4.83226 0.72308 4.82543 0.747643 4.81939C0.796768 4.80731 0.824096 4.80393 0.852027 4.80022C0.90789 4.79279 0.958389 4.78881 1.01927 4.78475C1.14103 4.77664 1.29693 4.77029 1.48613 4.76506C1.86453 4.7546 2.3714 4.74908 2.92414 4.75053C4.25895 4.75402 5.05871 4.74224 5.54094 4.70063C6.02316 4.65902 6.13331 4.61359 6.29275 4.52042C6.57678 4.35447 6.58581 4.29328 6.59104 4.20074C6.59627 4.1082 6.52597 3.83313 6.21687 3.42384C6.02965 3.17592 5.89473 2.98926 5.79226 2.7626C5.68979 2.53595 5.64989 2.29441 5.63548 2.07478C5.69407 1.35073 5.86501 0.81134 6.4279 0.442833C6.63678 0.306046 6.77961 0.272949 6.97679 0.214175C7.17397 0.155401 7.39386 0.10321 7.61284 0.0661351H7.61295C8.89328 -0.150492 10.1175 0.155021 10.6772 1.13128C10.8546 1.44066 10.9408 1.84852 10.8646 2.22148C10.7883 2.59443 10.6013 2.9122 10.35 3.2558C9.96067 3.78809 9.8672 4.31933 9.85558 4.24929V4.2494C9.86578 4.31165 9.8709 4.34209 10.0048 4.43228C10.1387 4.52253 10.4064 4.63082 10.7998 4.70177C10.7021 4.68414 10.8515 4.70512 10.9893 4.71135C11.127 4.71758 11.3155 4.72408 11.5355 4.73032C11.9755 4.74282 12.5429 4.75449 13.1092 4.76331C13.6756 4.77214 14.2416 4.77812 14.6787 4.77929C14.8973 4.77988 15.084 4.77929 15.2194 4.77733C15.3548 4.77537 15.5182 4.75432 15.3917 4.77506C15.6505 4.73263 15.9157 4.89487 16.0076 5.00269C16.0995 5.11051 16.1196 5.17864 16.1386 5.23145C16.1764 5.33706 16.1827 5.39605 16.1922 5.46413C16.2111 5.6003 16.2201 5.75109 16.2278 5.95474C16.2431 6.36206 16.2469 6.96409 16.2416 7.80947C16.2328 9.23298 16.288 10.1285 16.4017 10.5946C16.5154 11.0607 16.5284 11.0317 16.7432 11.1008C16.8666 11.1405 16.8471 11.1424 16.9649 11.1021C17.0827 11.0618 17.3257 10.9286 17.7038 10.6628C18.082 10.397 18.4158 10.1993 18.8232 10.1398C19.2307 10.0802 19.6346 10.2163 19.9598 10.4113C20.6038 10.7976 20.8781 11.5493 20.9735 12.4894C21.0698 13.4392 20.9106 14.3361 20.3809 14.9831C20.123 15.2982 19.6962 15.5369 19.2722 15.6064C19.0452 15.6436 18.74 15.6728 18.4518 15.567C18.1637 15.4612 17.9626 15.3097 17.5967 15.06C17.179 14.775 16.9132 14.6607 16.8217 14.6445C16.7302 14.6283 16.7693 14.61 16.6155 14.7285C16.431 14.8706 16.3942 14.8842 16.3096 15.4115C16.225 15.9388 16.1907 16.8938 16.183 18.5039C16.1807 18.9811 16.1698 19.4218 16.1534 19.7573C16.1453 19.9251 16.1361 20.065 16.1241 20.181C16.1181 20.239 16.1123 20.2892 16.1008 20.3495C16.0951 20.3796 16.089 20.4112 16.0721 20.4632C16.0552 20.5151 16.0813 20.5878 15.8711 20.7713C15.6775 20.9404 15.5848 20.9373 15.4806 20.9625C15.3764 20.9876 15.2758 21.0006 15.1598 21ZM15.1451 19.6831C15.1462 19.6831 15.1653 19.6831 15.1663 19.6831C15.1605 19.6831 15.1778 19.6812 15.1746 19.682C15.1729 19.6825 15.168 19.6748 15.1451 19.6831ZM14.8453 19.6825C14.8601 19.3757 14.8709 18.9542 14.8731 18.4975C14.8809 16.8743 14.9039 15.903 15.0165 15.2018C15.129 14.5005 15.4291 13.9833 15.8189 13.683C16.1394 13.4363 16.6076 13.2694 17.0489 13.3476C17.4902 13.4257 17.8608 13.6487 18.3322 13.9704C18.8815 14.3683 19.1224 14.4542 19.3696 14.1463C19.5727 13.8982 19.7412 13.3211 19.6704 12.623C19.5921 11.8506 19.4374 11.6315 19.2888 11.5423C19.0979 11.4278 19.0749 11.4338 19.0116 11.4431C18.9483 11.4523 18.7675 11.5221 18.4543 11.7422C18.0418 12.0321 17.7317 12.2308 17.3869 12.3488C17.042 12.4668 16.6502 12.4536 16.344 12.3551C15.7778 12.173 15.3034 11.6213 15.1295 10.9083C14.9555 10.1954 14.9228 9.2552 14.9318 7.80123C14.9367 7.00628 14.9316 6.46407 14.9195 6.09526C14.8355 6.09547 14.7719 6.09645 14.6751 6.09619C14.2292 6.09499 13.6596 6.089 13.0889 6.08011C12.5183 6.07121 11.9472 6.05944 11.4985 6.0467C11.2741 6.04033 11.0808 6.03371 10.9304 6.02691C10.78 6.02011 10.7352 6.02813 10.5684 5.99804C10.0628 5.90684 9.63388 5.76766 9.27562 5.5263C8.91736 5.28493 8.63454 4.89959 8.56307 4.46342C8.44193 3.72403 8.80537 3.1447 9.29479 2.4756C9.49097 2.2074 9.56661 2.0296 9.58159 1.95634C9.59657 1.88306 9.60269 1.89412 9.54242 1.78901C9.34905 1.45176 8.79253 1.20203 7.83043 1.36479H7.83033C7.67105 1.39176 7.4912 1.43436 7.34901 1.47675C7.20678 1.51914 7.07059 1.59362 7.1428 1.54634C6.87393 1.75962 6.86044 1.94106 6.98468 2.21767C7.01119 2.2763 7.08866 2.40043 7.2601 2.62745C7.66421 3.16255 7.93204 3.68789 7.89882 4.27548C7.8656 4.86307 7.45971 5.36181 6.95095 5.65908C6.63243 5.84519 6.23161 5.96286 5.65301 6.01279C5.07441 6.06271 4.26341 6.07094 2.92075 6.06743C2.37901 6.06601 1.88103 6.07162 1.52212 6.08155C1.50532 6.08202 1.49935 6.08272 1.48315 6.0832C1.47653 6.17792 1.47051 6.24513 1.46357 6.36072C1.43447 6.8454 1.40369 7.49188 1.37754 8.14679C1.35138 8.80169 1.32975 9.46617 1.31868 9.98801C1.31358 10.2284 1.31143 10.4278 1.3113 10.5903C1.34259 10.5583 1.37049 10.5364 1.40317 10.4978C1.55591 10.3175 1.71718 10.1468 1.86675 10.0042C2.01632 9.86162 2.0631 9.76599 2.35771 9.63811C2.91485 9.39629 3.46075 9.53359 3.95404 9.76038C4.44733 9.98718 4.90926 10.3437 5.2367 10.8276C5.81253 11.6785 5.88445 12.7299 5.62307 13.6382C5.36168 14.5465 4.73424 15.3818 3.76762 15.6377C3.03045 15.8328 2.25551 15.5744 1.57236 14.9994C1.49536 14.9346 1.43356 14.8944 1.36769 14.8481C1.36606 14.8719 1.36176 14.8894 1.36062 14.9132C1.3354 15.4385 1.3479 16.7858 1.38051 17.9697C1.39682 18.5616 1.4177 19.1195 1.43968 19.5261C1.44244 19.5772 1.44508 19.5994 1.44788 19.6456C1.54718 19.6487 1.61942 19.6523 1.74176 19.6547C2.23493 19.6645 2.89177 19.6686 3.55444 19.6672C4.21712 19.6658 4.88684 19.6589 5.40681 19.647C5.59296 19.6427 5.72902 19.6373 5.86824 19.6318C5.57039 19.3241 5.33705 19.0085 5.21332 18.6341C5.07563 18.2175 5.10477 17.7699 5.22778 17.3542C5.38227 16.8322 5.76995 16.3865 6.26773 16.1507C6.76551 15.915 7.34738 15.8426 8.03704 15.8572C8.59396 15.8691 9.08796 15.962 9.51299 16.1836C9.93802 16.4053 10.2817 16.7808 10.4444 17.233C10.5618 17.5594 10.6078 17.9347 10.5289 18.2928C10.4501 18.6509 10.2766 18.9676 10.0426 19.3113C9.97062 19.4171 9.92228 19.5113 9.8726 19.6047C9.89919 19.6076 9.88782 19.6071 9.9171 19.6094C10.0778 19.6219 10.2955 19.6339 10.5516 19.6439C11.0638 19.664 11.7315 19.6767 12.4481 19.6779C13.6684 19.6799 14.5201 19.6816 14.8453 19.6825ZM1.05823 19.6298C1.02577 19.6208 1.01375 19.6258 1.00594 19.6262C1.01466 19.6271 1.04245 19.6286 1.05823 19.6298ZM1.42512 14.4064C1.43683 14.3813 1.43264 14.3752 1.43055 14.3821C1.42972 14.3848 1.42656 14.4009 1.42512 14.4064ZM1.51453 5.68598C1.52472 5.65304 1.51976 5.64135 1.52007 5.63392C1.51889 5.64234 1.51629 5.67058 1.51453 5.68598Z" fill="#334851"/>
</svg>
