<svg width="184" height="138" viewBox="0 0 184 138" fill="none" xmlns="http://www.w3.org/2000/svg">
<path d="M94.6929 94.8014C97.8044 94.8014 100.716 94.8014 103.627 94.8014C110.837 94.8014 118.047 94.8303 125.257 94.7581C126.04 94.7508 126.992 94.3463 127.567 93.8045C129.874 91.6301 132.117 89.3762 134.263 87.0393C134.831 86.418 135.21 85.4031 135.257 84.547C135.389 82.1017 135.303 79.6456 135.303 77.0269H94.675V64.6739H135.264V0.12793H147.542C147.542 0.821429 147.542 1.46436 147.542 2.10729C147.542 31.1765 147.531 60.2456 147.567 89.3184C147.567 90.6332 147.195 91.5543 146.269 92.4717C141.716 96.9794 137.242 101.567 132.692 106.082C132.195 106.576 131.401 107.05 130.743 107.053C118.884 107.107 107.028 107.086 95.1686 107.079C95.0542 107.079 94.9397 107.028 94.6858 106.97V94.805L94.6929 94.8014Z" fill="#383B3D"/>
<path d="M48.5891 30.1034H89.2066V42.3805H48.6463V106.988H36.4293V105.034C36.4293 75.8455 36.4185 46.6535 36.4758 17.4651C36.4758 16.5802 36.9443 15.4821 37.563 14.8428C42.0443 10.1798 46.6006 5.59256 51.1892 1.03786C51.7221 0.510509 52.5983 0.0445645 53.3172 0.0409525C64.9942 -0.0168391 76.6748 0.0012208 88.3518 0.00844475C88.6344 0.00844475 88.9205 0.0554004 89.2781 0.0879082V12.3325C88.6201 12.3325 87.9942 12.3325 87.3719 12.3325C77.8979 12.3325 68.424 12.3036 58.95 12.3867C58.0094 12.3939 56.8721 12.8671 56.1747 13.51C53.8858 15.6158 51.7113 17.8516 49.6012 20.1416C49.0612 20.7267 48.675 21.6767 48.6356 22.4785C48.5104 24.9275 48.5891 27.3908 48.5891 30.107V30.1034Z" fill="#383B3D"/>
<path d="M129.996 29.753C129.996 38.9636 129.964 48.1741 130.028 57.3846C130.039 58.9161 129.545 59.3026 128.09 59.2954C117.6 59.2412 107.11 59.2484 96.6208 59.2954C95.276 59.3026 94.6824 59.0028 94.736 57.5111C94.8326 54.6865 94.829 51.8511 94.7288 49.0265C94.6788 47.5492 95.2439 47.1989 96.6065 47.2133C103.101 47.2711 109.6 47.1917 116.094 47.2747C117.686 47.2964 118.119 46.7835 118.112 45.2159C118.054 34.8604 118.051 24.5084 118.119 14.1529C118.129 12.56 117.629 12.0616 116.084 12.076C109.707 12.1374 103.327 12.0507 96.9534 12.1374C95.2367 12.1591 94.6394 11.6354 94.7253 9.87995C94.8576 7.17819 94.804 4.46198 94.7539 1.75662C94.7324 0.597171 95.1223 0.17457 96.2989 0.178182C107.028 0.21069 117.757 0.214302 128.483 0.170958C129.853 0.163734 130.017 0.81389 130.014 1.94444C129.985 11.2164 130 20.4847 130 29.7566L129.996 29.753Z" fill="#CD5661"/>
<path d="M53.986 77.4419C53.986 68.2892 54.0218 59.14 53.9503 49.9873C53.936 48.3366 54.4116 47.8346 56.0604 47.8454C66.4928 47.914 76.9216 47.9104 87.3541 47.8454C88.8776 47.8346 89.3032 48.3294 89.2532 49.7995C89.1602 52.5048 89.153 55.221 89.2603 57.9264C89.3175 59.3893 88.7739 59.7974 87.4077 59.7866C81.031 59.7396 74.6506 59.7613 68.2738 59.7613C65.8097 59.7613 65.7775 59.7866 65.7739 62.268C65.7739 72.3237 65.7703 82.3759 65.7811 92.4316C65.7811 94.913 65.8097 94.9094 68.2524 94.9094C74.6292 94.9094 81.0095 94.9419 87.3863 94.8841C88.7453 94.8733 89.314 95.1984 89.2567 96.6901C89.1495 99.5147 89.1745 102.35 89.2496 105.178C89.2818 106.464 88.9635 106.977 87.5651 106.97C76.9538 106.916 66.3462 106.908 55.7349 106.973C54.2256 106.984 53.961 106.388 53.9681 105.07C54.0039 95.8594 53.986 86.6452 53.986 77.4347V77.4419Z" fill="#CD5661"/>
<path d="M10.3573 121.764V124.899H3.87685V128.287H8.72648V131.332H3.87685V137.834H0V121.768H10.3573V121.764ZM22.299 134.991H16.3622L15.4108 137.83H11.3552L17.1132 121.764H21.6016L27.3561 137.83H23.2539L22.3026 134.991H22.299ZM21.3048 131.972L19.3342 126.088L17.385 131.972H21.3048ZM31.7265 137.418C30.8038 137.036 30.067 136.472 29.5163 135.724C28.9655 134.977 28.6722 134.077 28.6436 133.023H32.7672C32.828 133.619 33.0319 134.07 33.3788 134.384C33.7257 134.699 34.1799 134.854 34.7378 134.854C35.2958 134.854 35.7643 134.72 36.0969 134.453C36.4295 134.186 36.594 133.817 36.594 133.344C36.594 132.947 36.4617 132.618 36.197 132.362C35.9324 132.102 35.6069 131.889 35.2242 131.722C34.838 131.556 34.2908 131.365 33.5826 131.152C32.5562 130.83 31.7158 130.512 31.0684 130.191C30.4211 129.869 29.8596 129.396 29.3911 128.771C28.9226 128.147 28.6901 127.33 28.6901 126.322C28.6901 124.827 29.2266 123.657 30.2995 122.808C31.3724 121.963 32.7708 121.537 34.4911 121.537C36.2113 121.537 37.6562 121.959 38.7291 122.808C39.8021 123.653 40.3743 124.834 40.453 126.344H36.2614C36.2292 125.824 36.0432 125.416 35.6963 125.12C35.3494 124.824 34.9023 124.672 34.3587 124.672C33.8902 124.672 33.5111 124.798 33.225 125.051C32.9389 125.304 32.7958 125.665 32.7958 126.138C32.7958 126.658 33.0355 127.063 33.5219 127.352C34.0047 127.641 34.7593 127.955 35.7893 128.291C36.8157 128.641 37.6526 128.977 38.2928 129.299C38.933 129.62 39.4909 130.086 39.9594 130.697C40.4279 131.307 40.6604 132.094 40.6604 133.055C40.6604 134.016 40.4315 134.803 39.9701 135.551C39.5088 136.299 38.84 136.895 37.9638 137.335C37.0875 137.78 36.054 138 34.8594 138C33.6649 138 32.6528 137.809 31.7301 137.429L31.7265 137.418ZM56.8151 121.764V137.83H52.9383V131.217H46.9084V137.83H43.0316V121.764H46.9084V128.06H52.9383V121.764H56.8151ZM63.478 121.764V137.83H59.6012V121.764H63.478ZM69.6974 136.938C68.4492 136.237 67.4621 135.255 66.729 133.998C65.9958 132.737 65.631 131.325 65.631 129.754C65.631 128.183 65.9958 126.77 66.729 125.521C67.4621 124.271 68.4528 123.292 69.6974 122.591C70.9456 121.891 72.3154 121.54 73.8103 121.54C75.3052 121.54 76.6786 121.891 77.9232 122.591C79.1714 123.292 80.1513 124.271 80.8702 125.521C81.589 126.77 81.9467 128.183 81.9467 129.754C81.9467 131.325 81.5854 132.741 80.8594 133.998C80.1334 135.255 79.1535 136.237 77.9125 136.938C76.675 137.639 75.3052 137.989 73.8103 137.989C72.3154 137.989 70.942 137.639 69.6974 136.938ZM76.861 133.138C77.6228 132.282 78.0054 131.155 78.0054 129.75C78.0054 128.345 77.6228 127.197 76.861 126.351C76.0992 125.506 75.0835 125.08 73.8139 125.08C72.5442 125.08 71.5071 125.499 70.7417 126.341C69.9799 127.179 69.5973 128.316 69.5973 129.75C69.5973 131.184 69.9799 132.304 70.7417 133.149C71.5035 133.994 72.5299 134.421 73.8139 134.421C75.0978 134.421 76.0992 133.994 76.861 133.138ZM98.3339 137.83H94.457L87.9765 127.919V137.83H84.0997V121.764H87.9765L94.457 131.719V121.764H98.3339V137.83ZM110.175 137.444C109.381 137.079 108.759 136.566 108.305 135.909C107.851 135.251 107.611 134.522 107.579 133.713H109.256C109.331 134.489 109.671 135.175 110.276 135.761C110.88 136.349 111.763 136.642 112.926 136.642C113.999 136.642 114.85 136.364 115.476 135.808C116.102 135.251 116.416 134.543 116.416 133.691C116.416 133.005 116.241 132.452 115.894 132.033C115.547 131.614 115.114 131.3 114.603 131.094C114.088 130.888 113.38 130.664 112.471 130.418C111.413 130.13 110.576 129.848 109.957 129.573C109.339 129.299 108.809 128.873 108.369 128.291C107.929 127.713 107.711 126.926 107.711 125.932C107.711 125.109 107.922 124.372 108.344 123.722C108.766 123.075 109.364 122.566 110.136 122.201C110.905 121.836 111.792 121.652 112.786 121.652C114.253 121.652 115.433 122.013 116.334 122.739C117.232 123.465 117.75 124.397 117.886 125.542H116.162C116.055 124.885 115.701 124.303 115.097 123.79C114.492 123.278 113.677 123.025 112.65 123.025C111.699 123.025 110.905 123.281 110.272 123.79C109.639 124.303 109.321 125.001 109.321 125.885C109.321 126.557 109.496 127.099 109.843 127.511C110.19 127.923 110.626 128.237 111.145 128.45C111.667 128.663 112.371 128.894 113.262 129.136C114.288 129.425 115.122 129.714 115.755 129.996C116.388 130.278 116.924 130.711 117.364 131.289C117.8 131.87 118.022 132.647 118.022 133.622C118.022 134.37 117.825 135.078 117.432 135.75C117.039 136.422 116.459 136.963 115.687 137.375C114.914 137.787 113.995 137.993 112.922 137.993C111.849 137.993 110.962 137.809 110.168 137.444H110.175ZM130.354 121.833V123.162H125.958V137.834H124.37V123.162H119.95V121.833H130.35H130.354ZM134.388 121.833V131.903C134.388 133.489 134.76 134.666 135.511 135.428C136.258 136.19 137.281 136.573 138.583 136.573C139.885 136.573 140.897 136.194 141.63 135.439C142.363 134.684 142.728 133.507 142.728 131.903V121.833H144.316V131.881C144.316 133.911 143.783 135.436 142.717 136.458C141.652 137.48 140.267 137.993 138.558 137.993C136.848 137.993 135.464 137.483 134.399 136.458C133.333 135.436 132.8 133.911 132.8 131.881V121.833H134.388ZM157.052 122.794C158.307 123.433 159.265 124.358 159.931 125.564C160.596 126.77 160.928 128.204 160.928 129.866C160.928 131.527 160.596 132.936 159.931 134.135C159.265 135.334 158.307 136.248 157.052 136.88C155.796 137.512 154.294 137.83 152.542 137.83H147.849V121.833H152.542C154.294 121.833 155.796 122.154 157.052 122.794ZM157.585 134.753C158.74 133.586 159.319 131.957 159.319 129.866C159.319 127.775 158.74 126.117 157.585 124.932C156.429 123.751 154.748 123.158 152.542 123.158H149.437V136.501H152.542C154.748 136.501 156.429 135.916 157.585 134.749V134.753ZM165.438 121.833V137.83H163.85V121.833H165.438ZM172.169 136.949C170.975 136.255 170.034 135.287 169.347 134.041C168.661 132.799 168.317 131.39 168.317 129.819C168.317 128.248 168.661 126.839 169.347 125.596C170.034 124.354 170.975 123.386 172.169 122.689C173.364 121.995 174.691 121.649 176.157 121.649C177.623 121.649 178.975 121.995 180.17 122.689C181.364 123.382 182.301 124.35 182.981 125.596C183.66 126.839 184 128.248 184 129.819C184 131.39 183.66 132.799 182.981 134.041C182.301 135.284 181.364 136.255 180.17 136.949C178.975 137.642 177.638 137.989 176.157 137.989C174.676 137.989 173.36 137.642 172.169 136.949ZM179.329 135.771C180.266 135.222 181.007 134.431 181.55 133.402C182.094 132.373 182.366 131.177 182.366 129.819C182.366 128.461 182.094 127.272 181.55 126.247C181.007 125.224 180.266 124.437 179.329 123.888C178.392 123.339 177.334 123.064 176.157 123.064C174.98 123.064 173.922 123.339 172.985 123.888C172.048 124.437 171.307 125.224 170.764 126.247C170.22 127.269 169.948 128.461 169.948 129.819C169.948 131.177 170.22 132.373 170.764 133.402C171.307 134.431 172.048 135.222 172.985 135.771C173.922 136.32 174.98 136.595 176.157 136.595C177.334 136.595 178.392 136.32 179.329 135.771Z" fill="#383B3D"/>
<path d="M94.6929 94.8014C97.8044 94.8014 100.716 94.8014 103.627 94.8014C110.837 94.8014 118.047 94.8303 125.257 94.7581C126.04 94.7508 126.992 94.3463 127.567 93.8045C129.874 91.6301 132.117 89.3762 134.263 87.0393C134.831 86.418 135.21 85.4031 135.257 84.547C135.389 82.1017 135.303 79.6456 135.303 77.0269H94.675V64.6739H135.264V0.12793H147.542C147.542 0.821429 147.542 1.46436 147.542 2.10729C147.542 31.1765 147.531 60.2456 147.567 89.3184C147.567 90.6332 147.195 91.5543 146.269 92.4717C141.716 96.9794 137.242 101.567 132.692 106.082C132.195 106.576 131.401 107.05 130.743 107.053C118.884 107.107 107.028 107.086 95.1686 107.079C95.0542 107.079 94.9397 107.028 94.6858 106.97V94.805L94.6929 94.8014Z" fill="#383B3D"/>
<path d="M48.5891 30.1034H89.2066V42.3805H48.6463V106.988H36.4293V105.034C36.4293 75.8455 36.4185 46.6535 36.4758 17.4651C36.4758 16.5802 36.9443 15.4821 37.563 14.8428C42.0443 10.1798 46.6006 5.59256 51.1892 1.03786C51.7221 0.510509 52.5983 0.0445645 53.3172 0.0409525C64.9942 -0.0168391 76.6748 0.0012208 88.3518 0.00844475C88.6344 0.00844475 88.9205 0.0554004 89.2781 0.0879082V12.3325C88.6201 12.3325 87.9942 12.3325 87.3719 12.3325C77.8979 12.3325 68.424 12.3036 58.95 12.3867C58.0094 12.3939 56.8721 12.8671 56.1747 13.51C53.8858 15.6158 51.7113 17.8516 49.6012 20.1416C49.0612 20.7267 48.675 21.6767 48.6356 22.4785C48.5104 24.9275 48.5891 27.3908 48.5891 30.107V30.1034Z" fill="#383B3D"/>
<path d="M129.996 29.753C129.996 38.9636 129.964 48.1741 130.028 57.3846C130.039 58.9161 129.545 59.3026 128.09 59.2954C117.6 59.2412 107.11 59.2484 96.6208 59.2954C95.276 59.3026 94.6824 59.0028 94.736 57.5111C94.8326 54.6865 94.829 51.8511 94.7288 49.0265C94.6788 47.5492 95.2439 47.1989 96.6065 47.2133C103.101 47.2711 109.6 47.1917 116.094 47.2747C117.686 47.2964 118.119 46.7835 118.112 45.2159C118.054 34.8604 118.051 24.5084 118.119 14.1529C118.129 12.56 117.629 12.0616 116.084 12.076C109.707 12.1374 103.327 12.0507 96.9534 12.1374C95.2367 12.1591 94.6394 11.6354 94.7253 9.87995C94.8576 7.17819 94.804 4.46198 94.7539 1.75662C94.7324 0.597171 95.1223 0.17457 96.2989 0.178182C107.028 0.21069 117.757 0.214302 128.483 0.170958C129.853 0.163734 130.017 0.81389 130.014 1.94444C129.985 11.2164 130 20.4847 130 29.7566L129.996 29.753Z" fill="#CD5661"/>
<path d="M53.986 77.4419C53.986 68.2892 54.0218 59.14 53.9503 49.9873C53.936 48.3366 54.4116 47.8346 56.0604 47.8454C66.4928 47.914 76.9216 47.9104 87.3541 47.8454C88.8776 47.8346 89.3032 48.3294 89.2532 49.7995C89.1602 52.5048 89.153 55.221 89.2603 57.9264C89.3175 59.3893 88.7739 59.7974 87.4077 59.7866C81.031 59.7396 74.6506 59.7613 68.2738 59.7613C65.8097 59.7613 65.7775 59.7866 65.7739 62.268C65.7739 72.3237 65.7703 82.3759 65.7811 92.4316C65.7811 94.913 65.8097 94.9094 68.2524 94.9094C74.6292 94.9094 81.0095 94.9419 87.3863 94.8841C88.7453 94.8733 89.314 95.1984 89.2567 96.6901C89.1495 99.5147 89.1745 102.35 89.2496 105.178C89.2818 106.464 88.9635 106.977 87.5651 106.97C76.9538 106.916 66.3462 106.908 55.7349 106.973C54.2256 106.984 53.961 106.388 53.9681 105.07C54.0039 95.8594 53.986 86.6452 53.986 77.4347V77.4419Z" fill="#CD5661"/>
<path d="M10.3573 121.764V124.899H3.87685V128.287H8.72648V131.332H3.87685V137.834H0V121.768H10.3573V121.764ZM22.299 134.991H16.3622L15.4108 137.83H11.3552L17.1132 121.764H21.6016L27.3561 137.83H23.2539L22.3026 134.991H22.299ZM21.3048 131.972L19.3342 126.088L17.385 131.972H21.3048ZM31.7265 137.418C30.8038 137.036 30.067 136.472 29.5162 135.724C28.9655 134.977 28.6722 134.077 28.6436 133.023H32.7672C32.828 133.619 33.0319 134.07 33.3788 134.384C33.7257 134.699 34.1799 134.854 34.7378 134.854C35.2958 134.854 35.7643 134.72 36.0969 134.453C36.4295 134.186 36.594 133.817 36.594 133.344C36.594 132.947 36.4617 132.618 36.197 132.362C35.9324 132.102 35.6069 131.889 35.2242 131.722C34.838 131.556 34.2908 131.365 33.5826 131.152C32.5562 130.83 31.7158 130.512 31.0684 130.191C30.4211 129.869 29.8596 129.396 29.3911 128.771C28.9226 128.147 28.6901 127.33 28.6901 126.322C28.6901 124.827 29.2266 123.657 30.2995 122.808C31.3724 121.963 32.7708 121.537 34.4911 121.537C36.2113 121.537 37.6562 121.959 38.7291 122.808C39.8021 123.653 40.3743 124.834 40.453 126.344H36.2614C36.2292 125.824 36.0432 125.416 35.6963 125.12C35.3494 124.824 34.9023 124.672 34.3587 124.672C33.8902 124.672 33.5111 124.798 33.225 125.051C32.9389 125.304 32.7958 125.665 32.7958 126.138C32.7958 126.658 33.0355 127.063 33.5218 127.352C34.0047 127.641 34.7593 127.955 35.7893 128.291C36.8157 128.641 37.6526 128.977 38.2928 129.299C38.933 129.62 39.4909 130.086 39.9594 130.697C40.4279 131.307 40.6604 132.094 40.6604 133.055C40.6604 134.016 40.4315 134.803 39.9701 135.551C39.5088 136.299 38.84 136.895 37.9638 137.335C37.0875 137.78 36.054 138 34.8594 138C33.6649 138 32.6528 137.809 31.7301 137.429L31.7265 137.418ZM56.8151 121.764V137.83H52.9383V131.217H46.9084V137.83H43.0316V121.764H46.9084V128.06H52.9383V121.764H56.8151ZM63.478 121.764V137.83H59.6012V121.764H63.478ZM69.6974 136.938C68.4492 136.237 67.4621 135.255 66.729 133.998C65.9958 132.737 65.631 131.325 65.631 129.754C65.631 128.183 65.9958 126.77 66.729 125.521C67.4621 124.271 68.4528 123.292 69.6974 122.591C70.9456 121.891 72.3154 121.54 73.8103 121.54C75.3052 121.54 76.6786 121.891 77.9232 122.591C79.1714 123.292 80.1513 124.271 80.8702 125.521C81.589 126.77 81.9467 128.183 81.9467 129.754C81.9467 131.325 81.5854 132.741 80.8594 133.998C80.1334 135.255 79.1535 136.237 77.9125 136.938C76.675 137.639 75.3052 137.989 73.8103 137.989C72.3154 137.989 70.942 137.639 69.6974 136.938ZM76.861 133.138C77.6228 132.282 78.0054 131.155 78.0054 129.75C78.0054 128.345 77.6228 127.197 76.861 126.351C76.0992 125.506 75.0835 125.08 73.8139 125.08C72.5442 125.08 71.5071 125.499 70.7417 126.341C69.9799 127.179 69.5973 128.316 69.5973 129.75C69.5973 131.184 69.9799 132.304 70.7417 133.149C71.5035 133.994 72.5299 134.421 73.8139 134.421C75.0978 134.421 76.0992 133.994 76.861 133.138ZM98.3339 137.83H94.457L87.9765 127.919V137.83H84.0997V121.764H87.9765L94.457 131.719V121.764H98.3339V137.83ZM110.175 137.444C109.381 137.079 108.759 136.566 108.305 135.909C107.851 135.251 107.611 134.522 107.579 133.713H109.256C109.331 134.489 109.671 135.175 110.276 135.761C110.88 136.349 111.763 136.642 112.926 136.642C113.999 136.642 114.85 136.364 115.476 135.808C116.102 135.251 116.416 134.543 116.416 133.691C116.416 133.005 116.241 132.452 115.894 132.033C115.547 131.614 115.114 131.3 114.603 131.094C114.088 130.888 113.38 130.664 112.471 130.418C111.413 130.13 110.576 129.848 109.957 129.573C109.339 129.299 108.809 128.873 108.369 128.291C107.929 127.713 107.711 126.926 107.711 125.932C107.711 125.109 107.922 124.372 108.344 123.722C108.766 123.075 109.364 122.566 110.136 122.201C110.905 121.836 111.792 121.652 112.786 121.652C114.253 121.652 115.433 122.013 116.334 122.739C117.232 123.465 117.75 124.397 117.886 125.542H116.162C116.055 124.885 115.701 124.303 115.097 123.79C114.492 123.278 113.677 123.025 112.65 123.025C111.699 123.025 110.905 123.281 110.272 123.79C109.639 124.303 109.321 125.001 109.321 125.885C109.321 126.557 109.496 127.099 109.843 127.511C110.19 127.923 110.626 128.237 111.145 128.45C111.667 128.663 112.371 128.894 113.262 129.136C114.288 129.425 115.122 129.714 115.755 129.996C116.388 130.278 116.924 130.711 117.364 131.289C117.8 131.87 118.022 132.647 118.022 133.622C118.022 134.37 117.825 135.078 117.432 135.75C117.039 136.422 116.459 136.963 115.687 137.375C114.914 137.787 113.995 137.993 112.922 137.993C111.849 137.993 110.962 137.809 110.168 137.444H110.175ZM130.354 121.833V123.162H125.958V137.834H124.37V123.162H119.95V121.833H130.35H130.354ZM134.388 121.833V131.903C134.388 133.489 134.76 134.666 135.511 135.428C136.258 136.19 137.281 136.573 138.583 136.573C139.885 136.573 140.897 136.194 141.63 135.439C142.363 134.684 142.728 133.507 142.728 131.903V121.833H144.316V131.881C144.316 133.911 143.783 135.436 142.717 136.458C141.652 137.48 140.267 137.993 138.558 137.993C136.848 137.993 135.464 137.483 134.399 136.458C133.333 135.436 132.8 133.911 132.8 131.881V121.833H134.388ZM157.052 122.794C158.307 123.433 159.265 124.358 159.931 125.564C160.596 126.77 160.928 128.204 160.928 129.866C160.928 131.527 160.596 132.936 159.931 134.135C159.265 135.334 158.307 136.248 157.052 136.88C155.796 137.512 154.294 137.83 152.542 137.83H147.849V121.833H152.542C154.294 121.833 155.796 122.154 157.052 122.794ZM157.585 134.753C158.74 133.586 159.319 131.957 159.319 129.866C159.319 127.775 158.74 126.117 157.585 124.932C156.429 123.751 154.748 123.158 152.542 123.158H149.437V136.501H152.542C154.748 136.501 156.429 135.916 157.585 134.749V134.753ZM165.438 121.833V137.83H163.85V121.833H165.438ZM172.169 136.949C170.975 136.255 170.034 135.287 169.347 134.041C168.661 132.799 168.317 131.39 168.317 129.819C168.317 128.248 168.661 126.839 169.347 125.596C170.034 124.354 170.975 123.386 172.169 122.689C173.364 121.995 174.691 121.649 176.157 121.649C177.623 121.649 178.975 121.995 180.17 122.689C181.364 123.382 182.301 124.35 182.981 125.596C183.66 126.839 184 128.248 184 129.819C184 131.39 183.66 132.799 182.981 134.041C182.301 135.284 181.364 136.255 180.17 136.949C178.975 137.642 177.638 137.989 176.157 137.989C174.676 137.989 173.36 137.642 172.169 136.949ZM179.329 135.771C180.266 135.222 181.007 134.431 181.55 133.402C182.094 132.373 182.366 131.177 182.366 129.819C182.366 128.461 182.094 127.272 181.55 126.247C181.007 125.224 180.266 124.437 179.329 123.888C178.392 123.339 177.334 123.064 176.157 123.064C174.98 123.064 173.922 123.339 172.985 123.888C172.048 124.437 171.307 125.224 170.764 126.247C170.22 127.269 169.948 128.461 169.948 129.819C169.948 131.177 170.22 132.373 170.764 133.402C171.307 134.431 172.048 135.222 172.985 135.771C173.922 136.32 174.98 136.595 176.157 136.595C177.334 136.595 178.392 136.32 179.329 135.771Z" fill="#383B3D"/>
</svg>
