<svg width="225" height="62" viewBox="0 0 225 62" fill="none" xmlns="http://www.w3.org/2000/svg">
<path d="M75.6817 38.1284L73.2178 40.5413V49.8249H67.4744V11.8694H73.2178V33.9709L73.5237 34.0728L83.4699 23.1467H90.5501L90.6521 23.4526L79.471 34.4297L92.5609 49.5586L92.4589 49.8135H85.4354L75.6761 38.1227L75.6817 38.1284Z" fill="#334851"/>
<path d="M115.019 25.5653L115.274 25.4634V23.1581H121.018V49.8249H115.274V46.6983L114.968 46.5963C113.326 48.4938 110.505 49.8249 107.021 49.8249C100.151 49.8249 94.6623 43.9285 94.6623 36.4915C94.6623 29.0545 100.355 23.1581 107.537 23.1581C110.975 23.1581 113.331 24.1323 115.025 25.571L115.019 25.5653ZM115.274 41.1078V30.1306C113.53 28.7996 111.071 27.9783 108.251 27.9783C103.94 27.9783 100.406 31.6713 100.406 36.4915C100.406 41.3117 103.946 45.0047 108.251 45.0047C111.122 45.0047 113.79 43.9285 115.274 41.1078Z" fill="#334851"/>
<path d="M128.296 43.3621C130.709 44.2344 133.167 44.9028 135.631 44.9028C138.095 44.9028 140.298 43.9795 140.298 41.8271C140.298 40.2355 139.273 39.2103 135.529 38.338C130.658 37.2108 127.322 34.8999 127.322 30.901C127.322 25.7183 131.938 23.1581 136.962 23.1581C139.885 23.1581 142.655 23.9284 145.17 25.0046L144.093 29.5699C141.839 28.6976 139.477 28.0292 137.172 28.0292C135.019 28.0292 133.071 29.0035 133.071 30.901C133.071 32.232 134.045 33.3139 137.585 34.0786C142.819 35.2057 145.996 37.4657 145.996 41.7195C145.996 47.2081 141.125 49.7739 135.892 49.7739C132.867 49.7739 129.893 49.1056 127.174 48.0803L128.302 43.3621H128.296Z" fill="#334851"/>
<path d="M157.472 47.4629V61.1078H151.729V23.1523H157.472V26.228L157.778 26.3299C159.421 24.4834 162.139 23.1523 165.623 23.1523C172.544 23.1523 177.982 29.0487 177.982 36.4858C177.982 43.9228 172.34 49.8192 165.107 49.8192C161.669 49.8192 159.364 48.9469 157.466 47.4572L157.472 47.4629ZM157.472 31.4617V43.413C159.166 44.4382 161.573 45.0046 164.394 45.0046C168.704 45.0046 172.238 41.3116 172.238 36.4914C172.238 31.6712 168.698 27.9782 164.394 27.9782C161.573 27.9782 158.956 28.9015 157.472 31.4673V31.4617Z" fill="#334851"/>
<path d="M192.703 49.7682C186.756 49.7682 183.572 46.9475 183.572 41.5609V11.8694H189.316V41.153C189.316 43.515 190.857 44.5912 193.213 44.7441L192.697 49.7682H192.703Z" fill="#334851"/>
<path d="M211.202 23.1523C219.047 23.1523 225 29.0487 225 36.4858C225 43.9228 219.053 49.8192 211.202 49.8192C203.352 49.8192 197.455 43.9228 197.455 36.4858C197.455 29.0487 203.403 23.1523 211.202 23.1523ZM211.202 44.999C215.767 44.999 219.251 41.3059 219.251 36.4858C219.251 31.6656 215.762 27.9725 211.202 27.9725C206.643 27.9725 203.199 31.7165 203.199 36.4858C203.199 41.255 206.688 44.999 211.202 44.999Z" fill="#334851"/>
<path d="M46.1262 2.53494C46.1092 2.6199 46.0809 2.70486 46.0469 2.78416L46.0922 2.67088L45.707 4.30215V4.31348L45.6844 4.38712L45.6504 4.5004L45.6674 4.44376C44.6139 9.24129 44.1721 14.1521 44.3703 19.0233C44.5742 23.8944 45.3785 28.726 46.7946 33.3536C48.2163 37.9812 50.2157 42.4049 52.7532 46.4887C55.2795 50.5726 58.3438 54.2996 61.8045 57.5848C62.7561 58.4911 62.8014 59.9977 61.8952 60.9493C60.9889 61.9009 59.4822 61.9462 58.5307 61.0399C58.5024 61.0116 58.474 60.9833 58.4457 60.955H58.44C54.8886 57.1883 51.8187 52.9855 49.3548 48.4655C46.8908 43.9569 45.0273 39.131 43.7982 34.1749C42.5748 29.2187 42.0197 24.1153 42.0876 19.0516C42.1613 13.9822 42.9033 8.94109 44.2514 4.08692L44.2627 4.04727V4.03027L44.3023 3.91699L44.2797 4.00195C44.3193 3.83769 44.3646 3.70742 44.4043 3.56015L44.5289 3.12967L44.7838 2.27439L44.8291 2.16111C44.8291 2.16111 44.8008 2.21775 44.7951 2.25173C44.8687 1.88356 45.2256 1.64567 45.5938 1.7193C45.9619 1.79294 46.1998 2.14978 46.1262 2.51795V2.53494Z" fill="url(#paint0_linear_57_2119)"/>
<path d="M58.7348 58.9445L58.6779 58.8649C58.6779 58.8649 58.7064 58.8933 58.7234 58.9161C58.7234 58.9274 58.7234 58.9388 58.7348 58.9445Z" fill="url(#paint1_linear_57_2119)"/>
<path d="M0.74499 40.2468C0.829952 40.2241 0.920579 40.2128 1.00554 40.2071L0.880929 40.2185L2.5122 39.839H2.52353L2.60283 39.822L2.72178 39.7993L2.66514 39.8107C7.42869 38.6155 12.0223 36.8256 16.2931 34.475C20.5639 32.1244 24.5288 29.2527 28.0405 25.9222C31.5523 22.5916 34.6166 18.825 37.1428 14.7355C39.669 10.6516 41.6458 6.25057 43.0449 1.68526C43.43 0.427822 44.7611 -0.280196 46.0185 0.104966C47.276 0.490128 47.984 1.8212 47.5988 3.07864C47.5875 3.11829 47.5762 3.15794 47.5592 3.19759V3.20892C45.7693 8.0631 43.3791 12.685 40.4337 16.8992C37.494 21.1133 34.0105 24.9366 30.1193 28.2388C26.228 31.5467 21.9063 34.3164 17.341 36.5085C12.77 38.7061 7.92713 40.2864 2.98233 41.238H2.94268L2.92569 41.2493L2.80674 41.2663L2.89737 41.2493C2.73311 41.2833 2.59717 41.306 2.4499 41.3343L2.0081 41.4136L1.13015 41.5665L1.00554 41.5779C1.03953 41.5779 1.07351 41.5779 1.10183 41.5665C0.739326 41.6628 0.371156 41.4476 0.269201 41.0907C0.167247 40.7339 0.388148 40.3601 0.74499 40.2581V40.2468Z" fill="url(#paint2_linear_57_2119)"/>
<path d="M54.5034 56.3613C51.5411 53.6538 48.3012 51.2806 44.8517 49.2811C40.6319 46.8342 36.1289 44.9141 31.4617 43.6226C26.7944 42.3255 21.9912 41.6402 17.1824 41.5835C12.3848 41.5212 7.58729 42.099 2.95401 43.2545C1.67958 43.5717 0.382488 42.7957 0.0709592 41.5156C-0.246233 40.2468 0.529755 38.9497 1.80419 38.6325C1.84384 38.6212 1.88349 38.6099 1.92314 38.6099H1.93446C7.01521 37.63 12.2092 37.3014 17.341 37.6526C22.467 37.9925 27.5364 39.0177 32.3736 40.6433C37.2165 42.2746 41.8157 44.5572 46.0525 47.3327C47.6215 48.3579 49.1395 49.468 50.5952 50.6462C51.779 52.623 53.0874 54.5261 54.4978 56.3556L54.5034 56.3613Z" fill="url(#paint3_linear_57_2119)"/>
<defs>
<linearGradient id="paint0_linear_57_2119" x1="52.3001" y1="40.8982" x2="48.6637" y2="2.1781" gradientUnits="userSpaceOnUse">
<stop stop-color="#0064E0"/>
<stop offset="0.06" stop-color="#0067E3"/>
<stop offset="0.27" stop-color="#0071EC"/>
<stop offset="0.62" stop-color="#007DF5"/>
<stop offset="1" stop-color="#0081F9"/>
</linearGradient>
<linearGradient id="paint1_linear_57_2119" x1="58.7064" y1="58.9218" x2="58.7064" y2="58.8649" gradientUnits="userSpaceOnUse">
<stop stop-color="#0064E0"/>
<stop offset="0.06" stop-color="#0067E3"/>
<stop offset="0.27" stop-color="#0071EC"/>
<stop offset="0.62" stop-color="#007DF5"/>
<stop offset="1" stop-color="#0081F9"/>
</linearGradient>
<linearGradient id="paint2_linear_57_2119" x1="34.5203" y1="16.2874" x2="-0.56343" y2="37.4657" gradientUnits="userSpaceOnUse">
<stop stop-color="#0064E0"/>
<stop offset="0.06" stop-color="#0067E3"/>
<stop offset="0.27" stop-color="#0071EC"/>
<stop offset="0.62" stop-color="#007DF5"/>
<stop offset="1" stop-color="#0081F9"/>
</linearGradient>
<linearGradient id="paint3_linear_57_2119" x1="23.2657" y1="44.9367" x2="51.8526" y2="62.8411" gradientUnits="userSpaceOnUse">
<stop stop-color="#0064E0"/>
<stop offset="0.06" stop-color="#0067E3"/>
<stop offset="0.27" stop-color="#0071EC"/>
<stop offset="0.62" stop-color="#007DF5"/>
<stop offset="1" stop-color="#0081F9"/>
</linearGradient>
</defs>
</svg>
