<svg width="1027" height="378" viewBox="0 0 1027 378" fill="none" xmlns="http://www.w3.org/2000/svg">
<g opacity="0.5">
<g opacity="0.15">
<path d="M187.033 14.7192C187.145 15.2841 187.187 15.8778 187.18 16.4511L187.17 15.6403L188.954 26.6359L188.983 26.7055L189.031 27.2152L189.11 27.9972L189.07 27.6062C194.803 59.7426 204.58 91.0186 218.186 120.423C231.827 149.814 249.053 177.434 269.517 202.246C290.015 227.044 313.543 249.12 339.51 267.742C365.407 286.392 393.701 301.482 423.305 312.852C431.453 315.996 435.563 325.132 432.418 333.279C429.274 341.427 420.138 345.537 411.991 342.392C411.745 342.291 411.499 342.189 411.253 342.087L411.218 342.101C379.833 328.006 350.294 310.009 323.67 288.522C297.075 267.105 273.36 242.214 253.208 214.909C233.091 187.59 216.704 157.667 204.243 126.403C191.802 95.0893 183.537 62.2498 179.468 29.0166L179.437 28.7443L179.394 28.64L179.349 27.8436L179.426 28.4229C179.252 27.3135 179.199 26.3984 179.068 25.3933L178.738 22.4333L178.128 16.5335L178.118 15.7227C178.118 15.7227 178.088 16.1425 178.14 16.3656C177.655 13.9178 179.241 11.5496 181.689 11.0653C184.137 10.5811 186.505 12.1671 186.99 14.6149L187.033 14.7192Z" fill="url(#paint0_linear_57_2137)"/>
<path d="M407.915 329.008L407.363 328.663C407.363 328.663 407.61 328.766 407.773 328.862C407.802 328.932 407.831 329.002 407.915 329.008Z" fill="url(#paint1_linear_57_2137)"/>
<path d="M4.30379 361.688C4.76784 361.332 5.29548 361.032 5.80274 360.781L5.06643 361.168L14.1173 354.689L14.1869 354.66L14.6305 354.354L15.3033 353.913L14.9843 354.126C41.193 334.673 64.8457 312 85.09 286.706C105.334 261.411 122.375 233.695 135.467 204.314C148.559 174.933 157.794 144.013 162.904 112.478C168.029 80.9783 168.974 48.9283 165.953 17.3391C165.12 8.63887 171.492 0.906339 180.192 0.0732194C188.892 -0.759901 196.625 5.61224 197.458 14.3125C197.489 14.5848 197.521 14.857 197.517 15.1437L197.546 15.2132C198.902 49.5701 195.98 84.028 188.613 117.394C181.281 150.745 169.617 183.079 154.123 213.251C138.643 243.458 119.152 271.456 96.6955 296.526C74.2191 321.645 48.5031 343.665 20.562 362.083L20.3186 362.184L20.2431 362.297L19.556 362.704L20.0692 362.369C19.147 362.996 18.37 363.48 17.5378 364.029L15.0268 365.639L10.0252 368.811L9.28887 369.198C9.49753 369.111 9.7062 369.025 9.85128 368.883C7.87039 370.396 5.06241 370.011 3.52886 368.079C1.99531 366.148 2.40089 363.291 4.3326 361.757L4.30379 361.688Z" fill="url(#paint2_linear_57_2137)"/>
<path d="M375.365 323.908C350.29 314.818 324.361 308.486 298.096 304.983C265.964 300.691 233.432 300.353 201.49 304.294C169.534 308.2 138.3 316.208 108.629 328.09C79.0137 339.909 51.0262 355.658 25.5165 374.536C18.4982 379.725 8.5605 378.26 3.39207 371.192C-1.78233 364.208 -0.316599 354.271 6.70173 349.082C6.91636 348.912 7.131 348.741 7.37444 348.64L7.444 348.612C36.1477 329.673 67.2035 314.446 99.6054 303.551C131.944 292.601 165.677 286.003 199.512 283.682C233.396 281.381 267.441 283.699 300.514 289.965C312.755 292.27 324.899 295.225 336.833 298.757C349.129 307.884 362.003 316.242 375.316 323.888L375.365 323.908Z" fill="url(#paint3_linear_57_2137)"/>
</g>
<g opacity="0.15">
<path d="M912.079 185.855C912.079 285.738 831.025 366.709 731.04 366.709C631.054 366.709 550 285.738 550 185.855C550 85.9714 631.054 5 731.04 5C831.025 5 912.079 85.9714 912.079 185.855Z" fill="url(#paint4_linear_57_2137)"/>
<path d="M1027 315.598C1027 347.3 1001.27 373 969.54 373C937.805 373 912.079 347.3 912.079 315.598C912.079 283.896 937.805 258.197 969.54 258.197C1001.27 258.197 1027 283.896 1027 315.598Z" fill="url(#paint5_linear_57_2137)"/>
<path d="M970.327 207.085C970.327 218.811 960.812 228.316 949.074 228.316C937.337 228.316 927.822 218.811 927.822 207.085C927.822 195.36 937.337 185.855 949.074 185.855C960.812 185.855 970.327 195.36 970.327 207.085Z" fill="url(#paint6_linear_57_2137)"/>
</g>
</g>
<defs>
<linearGradient id="paint0_linear_57_2137" x1="216.577" y1="246.73" x2="209.714" y2="1.01423" gradientUnits="userSpaceOnUse">
<stop stop-color="#0064E0"/>
<stop offset="0.06" stop-color="#0067E3"/>
<stop offset="0.27" stop-color="#0071EC"/>
<stop offset="0.62" stop-color="#007DF5"/>
<stop offset="1" stop-color="#0081F9"/>
</linearGradient>
<linearGradient id="paint1_linear_57_2137" x1="216.888" y1="269.74" x2="216.888" y2="0" gradientUnits="userSpaceOnUse">
<stop stop-color="#0064E0"/>
<stop offset="0.06" stop-color="#0067E3"/>
<stop offset="0.27" stop-color="#0071EC"/>
<stop offset="0.62" stop-color="#007DF5"/>
<stop offset="1" stop-color="#0081F9"/>
</linearGradient>
<linearGradient id="paint2_linear_57_2137" x1="313.147" y1="147.891" x2="-6.18315" y2="341.656" gradientUnits="userSpaceOnUse">
<stop stop-color="#0064E0"/>
<stop offset="0.06" stop-color="#0067E3"/>
<stop offset="0.27" stop-color="#0071EC"/>
<stop offset="0.62" stop-color="#007DF5"/>
<stop offset="1" stop-color="#0081F9"/>
</linearGradient>
<linearGradient id="paint3_linear_57_2137" x1="154.509" y1="333.207" x2="375.569" y2="370.436" gradientUnits="userSpaceOnUse">
<stop stop-color="#0064E0"/>
<stop offset="0.06" stop-color="#0067E3"/>
<stop offset="0.27" stop-color="#0071EC"/>
<stop offset="0.62" stop-color="#007DF5"/>
<stop offset="1" stop-color="#0081F9"/>
</linearGradient>
<linearGradient id="paint4_linear_57_2137" x1="550" y1="5" x2="1026.64" y2="373.471" gradientUnits="userSpaceOnUse">
<stop stop-color="#0058C4"/>
<stop offset="1" stop-color="#0174FF"/>
</linearGradient>
<linearGradient id="paint5_linear_57_2137" x1="550" y1="5" x2="1026.64" y2="373.471" gradientUnits="userSpaceOnUse">
<stop stop-color="#0058C4"/>
<stop offset="1" stop-color="#0174FF"/>
</linearGradient>
<linearGradient id="paint6_linear_57_2137" x1="550" y1="5" x2="1026.64" y2="373.471" gradientUnits="userSpaceOnUse">
<stop stop-color="#0058C4"/>
<stop offset="1" stop-color="#0174FF"/>
</linearGradient>
</defs>
</svg>
