<svg width="50" height="50" viewBox="0 0 50 50" fill="none" xmlns="http://www.w3.org/2000/svg">
<rect width="50" height="50" rx="25" fill="#0266E1"/>
<path d="M22.3333 29.4445V30.3334C22.3333 31.0406 22.6143 31.7189 23.1144 32.219C23.6145 32.7191 24.2927 33 25 33C25.7072 33 26.3855 32.7191 26.8856 32.219C27.3857 31.7189 27.6667 31.0406 27.6667 30.3334V29.4445M33 20.3129C32.4169 19.0447 31.5703 17.9153 30.5164 17M17 20.3129C17.5825 19.0448 18.4286 17.9155 19.4818 17M23.2222 18.7778C23.2222 18.3063 23.4095 17.8541 23.7429 17.5207C24.0763 17.1873 24.5285 17 25 17C25.4715 17 25.9237 17.1873 26.2571 17.5207C26.5905 17.8541 26.7778 18.3063 26.7778 18.7778C27.7986 19.2605 28.6688 20.0119 29.2952 20.9514C29.9215 21.8909 30.2804 22.9832 30.3333 24.1111V26.7778C30.4002 27.3304 30.596 27.8596 30.9047 28.3228C31.2135 28.786 31.6267 29.1702 32.1111 29.4445H17.8889C18.3733 29.1702 18.7865 28.786 19.0953 28.3228C19.404 27.8596 19.5998 27.3304 19.6667 26.7778V24.1111C19.7196 22.9832 20.0785 21.8909 20.7048 20.9514C21.3312 20.0119 22.2014 19.2605 23.2222 18.7778Z" stroke="white" stroke-linecap="round" stroke-linejoin="round"/>
</svg>
